<svg id="Capa_1" data-name="Capa 1" xmlns="http://www.w3.org/2000/svg" viewBox="0 0 1080 1080"><defs><style>.cls-1{fill:#0078d7;}</style></defs><path class="cls-1" d="M374.55,628.55a162.47,162.47,0,0,0,39.63,111,179.67,179.67,0,0,0,43.49,36.57,258.77,258.77,0,0,0,53,25.55,326.66,326.66,0,0,0,59.18,14.79A383.32,383.32,0,0,0,629,821.4a392.9,392.9,0,0,0,70.76-5.95,526.23,526.23,0,0,0,65.14-16.54,571.32,571.32,0,0,0,62.43-24.67c20.69-9.45,41.73-19.78,63.3-31.33V943.72a717,717,0,0,1-71.46,29.58,721,721,0,0,1-71.45,21.26,556.85,556.85,0,0,1-74,13,725.05,725.05,0,0,1-76.81,4.9,431.25,431.25,0,0,1-102.06-12.25,407.86,407.86,0,0,1-92.93-35.17,390,390,0,0,1-80.32-56,351.69,351.69,0,0,1-62.16-73.85,358,358,0,0,1-40.24-88.64,367.8,367.8,0,0,1-14-103.34,382.19,382.19,0,0,1,16-111.21A352.76,352.76,0,0,1,340.53,356.16a385.17,385.17,0,0,1,97.32-56.08A205.43,205.43,0,0,0,392,369.9a300.49,300.49,0,0,0-21.13,81.38h337a339.25,339.25,0,0,0-10.35-88.64A148.25,148.25,0,0,0,664,299.46a140.09,140.09,0,0,0-59.18-37.8A272.52,272.52,0,0,0,516,249a417.62,417.62,0,0,0-122,18.2,514.48,514.48,0,0,0-116,50.22,561.89,561.89,0,0,0-101.18,75.78A477.84,477.84,0,0,0,99.07,488.9a547,547,0,0,1,25.87-114.71,485.28,485.28,0,0,1,48-101.85,454.57,454.57,0,0,1,68.39-84.79,409.65,409.65,0,0,1,87.33-65A442.14,442.14,0,0,1,432.24,80.89,533.57,533.57,0,0,1,550.61,67.5,411.33,411.33,0,0,1,623.12,74,501.88,501.88,0,0,1,693.7,92,414.63,414.63,0,0,1,906.05,254.4a433.79,433.79,0,0,1,55.67,120.66,485.12,485.12,0,0,1,19.21,136.85V628.58Z"/></svg>