<?xml version="1.0" encoding="utf-8"?>
<!-- Generator: Adobe Illustrator 24.1.0, SVG Export Plug-In . SVG Version: 6.00 Build 0)  -->
<svg version="1.1" id="Capa_1" xmlns="http://www.w3.org/2000/svg" xmlns:xlink="http://www.w3.org/1999/xlink" x="0px" y="0px"
	 viewBox="0 0 1080 1080" style="enable-background:new 0 0 1080 1080;" xml:space="preserve">
<style type="text/css">
	.st0{fill:#FFFFFF;}
</style>
<path class="st0" d="M374.5,628.5c-1.1,40.7,13,80.3,39.6,111c12.5,14.4,27.1,26.8,43.5,36.6c16.6,10.5,34.4,19.1,53,25.5
	c19.2,6.8,39,11.7,59.2,14.8c19.6,3.2,39.3,4.8,59.2,4.9c23.7,0.2,47.4-1.8,70.8-6c22-4.1,43.8-9.6,65.1-16.5
	c21.3-7,42.1-15.2,62.4-24.7c20.7-9.5,41.7-19.8,63.3-31.3v200.8c-23.3,11.1-47.1,21-71.5,29.6c-23.4,8.3-47.3,15.4-71.5,21.3
	c-24.3,6-49.1,10.3-74,13c-25.5,3-51.1,4.6-76.8,4.9c-34.4,0-68.7-4.1-102.1-12.3c-32.3-7.9-63.5-19.7-92.9-35.2
	c-29-15.2-56-34-80.3-56c-24-21.6-44.9-46.5-62.2-73.8c-17.4-27.6-30.9-57.4-40.2-88.6c-9.6-33.6-14.3-68.4-14-103.3
	c-0.2-37.7,5.2-75.1,16-111.2c20.8-69.5,62.4-130.9,119.3-175.8c29.5-23.3,62.3-42.2,97.3-56.1c-19.9,19.9-35.5,43.7-45.9,69.8
	c-10.8,26-17.9,53.4-21.1,81.4h337c0.5-29.9-3-59.7-10.3-88.6c-5.8-23.5-17.4-45.2-33.5-63.2c-16.2-17.4-36.6-30.4-59.2-37.8
	c-28.7-9.1-58.7-13.4-88.8-12.7c-41.3,0-82.5,6.1-122,18.2c-40.6,11.9-79.5,28.8-116,50.2c-36.5,21.4-70.4,46.8-101.2,75.8
	c-29.9,28.4-56.1,60.6-77.8,95.7c4.5-39.1,13.1-77.5,25.9-114.7c12-35.7,28.1-69.9,48-101.9c19.3-30.9,42.3-59.4,68.4-84.8
	c26.1-25.5,55.5-47.3,87.3-65c32.6-18.2,67.4-32.2,103.6-41.7c38.8-8.9,78.5-13.4,118.4-13.4c24.3,0,48.6,2.2,72.5,6.5
	c23.9,4.3,47.5,10.3,70.6,18c86.8,29.2,161.4,86.3,212.3,162.4c24.6,37.1,43.4,77.8,55.7,120.7c12.9,44.5,19.4,90.6,19.2,136.9
	v116.7L374.5,628.5z"/>
</svg>
